<?xml version="1.0" encoding="utf-8"?>
<!-- Generator: Adobe Illustrator 20.1.0, SVG Export Plug-In . SVG Version: 6.00 Build 0)  -->
<svg version="1.1" id="Layer_1" xmlns="http://www.w3.org/2000/svg" xmlns:xlink="http://www.w3.org/1999/xlink" x="0px" y="0px"
	 width="11px" height="12.6px" viewBox="0 0 11 12.6" enable-background="new 0 0 11 12.6" xml:space="preserve">
<g>
	<g>
		<path fill="#F7751F" d="M0,1.1c0-0.3,0.1-0.6,0.3-0.8c0.4-0.4,1.1-0.4,1.6,0l3.6,3.6l3.6-3.6c0.4-0.4,1.1-0.4,1.6,0
			c0.4,0.4,0.4,1.1,0,1.6L6.3,6.3c-0.4,0.4-1.1,0.4-1.6,0L0.3,1.9C0.1,1.7,0,1.4,0,1.1z"/>
	</g>
	<g>
		<path fill="#F7751F" d="M0,7.1c0-0.3,0.1-0.6,0.3-0.8c0.4-0.4,1.1-0.4,1.6,0l3.6,3.6l3.6-3.6c0.4-0.4,1.1-0.4,1.6,0
			c0.4,0.4,0.4,1.1,0,1.6l-4.4,4.4c-0.4,0.4-1.1,0.4-1.6,0L0.3,7.8C0.1,7.6,0,7.3,0,7.1z"/>
	</g>
</g>
</svg>
